<svg xmlns="http://www.w3.org/2000/svg" width="34" height="31" viewBox="0 0 34 31">
  <metadata><?xpacket begin="﻿" id="W5M0MpCehiHzreSzNTczkc9d"?>
<x:xmpmeta xmlns:x="adobe:ns:meta/" x:xmptk="Adobe XMP Core 5.6-c138 79.159824, 2016/09/14-01:09:01        ">
   <rdf:RDF xmlns:rdf="http://www.w3.org/1999/02/22-rdf-syntax-ns#">
      <rdf:Description rdf:about=""/>
   </rdf:RDF>
</x:xmpmeta>
                                                                                                    
                                                                                                    
                                                                                                    
                                                                                                    
                                                                                                    
                                                                                                    
                                                                                                    
                                                                                                    
                                                                                                    
                                                                                                    
                                                                                                    
                                                                                                    
                                                                                                    
                                                                                                    
                                                                                                    
                                                                                                    
                                                                                                    
                                                                                                    
                                                                                                    
                                                                                                    
                           
<?xpacket end="w"?></metadata>
<defs>
    <style>
      .cls-1 {
        fill: #46515a;
        fill-rule: evenodd;
      }
    </style>
  </defs>
  <path id="Apartment" class="cls-1" d="M1211.8,568.947h-1.81v-1.779h-1.45a0.959,0.959,0,0,1-1.15-1.149c-0.01-2.327,0-4.655,0-6.984V539.271c0-1.01.26-1.272,1.27-1.272h16.09a1.011,1.011,0,0,1,1.25,1.246V565.9c0,1.01-.26,1.27-1.27,1.27h-1.31v1.779h-1.8v-1.738h-9.82v1.738Zm-2.6-14.4h6.56V539.82h-6.56v14.722Zm14.95,0.014v-14.74h-6.52v14.74h6.52Zm-14.94,10.784h14.88v-3.533h-14.88v3.533Zm14.91-8.91h-14.9v3.5h14.9v-3.5Zm-19.52-2.3c-0.85,0-1.6.025-2.35-.01-0.45-.02-0.62.1-0.59,0.57,0.04,0.695,0,1.394.01,2.091a0.357,0.357,0,0,1-.42.421c-1.42.044-1.42,0.053-1.42-1.332,0-.444.02-0.889-0.01-1.33a0.523,0.523,0,0,0-.24-0.389c-0.32-.064-0.29.2-0.3,0.406v0.191c0,3.945.01,7.889-.01,11.835,0,0.479.12,0.623,0.61,0.606,1.01-.035.84-0.1,0.85,0.811,0.01,1,0,1-1.01,1-1.15,0-2.3-.008-3.46,0-0.3,0-.43-0.087-0.41-0.406a9.108,9.108,0,0,0,0-1.045c-0.02-.3.11-0.381,0.39-0.38a1.928,1.928,0,0,0,1.1-.087,2.258,2.258,0,0,0,.11-1.183c0.01-3.723,0-7.446.02-11.17a0.5,0.5,0,0,0-.62-0.613c-1.41.032-2.82,0.013-4.23,0.01-0.18,0-.37-0.021-0.62-0.037,0.58-2.83,1.15-5.6,1.73-8.384h9.13C1203.43,548.462,1204,551.24,1204.6,554.127Zm-10.35-1.829h8.03a1.128,1.128,0,0,0,0-.261c-0.29-1.442-.57-2.885-0.88-4.321a0.539,0.539,0,0,0-.42-0.26c-1.79-.017-3.58-0.008-5.38-0.015a0.4,0.4,0,0,0-.45.413c-0.1.624-.26,1.239-0.38,1.86C1194.6,550.562,1194.43,551.411,1194.25,552.3Zm18.31-6.119h1.73V549.7h-1.73v-3.524Zm6.53,0h1.74v3.532h-1.74v-3.532Zm-4.19,18.262v-1.724h3.58v1.724h-3.58Zm3.6-7.109v1.725h-3.6V557.33h3.6Z" transform="translate(-1192 -538)"/>
</svg>
