<svg xmlns="http://www.w3.org/2000/svg" width="23" height="15" viewBox="0 0 23 15">
  <metadata><?xpacket begin="﻿" id="W5M0MpCehiHzreSzNTczkc9d"?>
<x:xmpmeta xmlns:x="adobe:ns:meta/" x:xmptk="Adobe XMP Core 5.6-c138 79.159824, 2016/09/14-01:09:01        ">
   <rdf:RDF xmlns:rdf="http://www.w3.org/1999/02/22-rdf-syntax-ns#">
      <rdf:Description rdf:about=""/>
   </rdf:RDF>
</x:xmpmeta>
                                                                                                    
                                                                                                    
                                                                                                    
                                                                                                    
                                                                                                    
                                                                                                    
                                                                                                    
                                                                                                    
                                                                                                    
                                                                                                    
                                                                                                    
                                                                                                    
                                                                                                    
                                                                                                    
                                                                                                    
                                                                                                    
                                                                                                    
                                                                                                    
                                                                                                    
                                                                                                    
                           
<?xpacket end="w"?></metadata>
<defs>
    <style>
      .cls-1 {
        fill: #2f9f13;
        fill-rule: evenodd;
      }
    </style>
  </defs>
  <path id="email" class="cls-1" d="M401.463,633.016h10.585c0.793,0,.951.154,0.951,0.923q0,6.577,0,13.155c0,0.748-.162.906-0.929,0.906H390.9c-0.719,0-.891-0.167-0.891-0.864,0-4.4.01-8.795-.01-13.193,0-.778.275-0.952,1-0.945C394.484,633.037,397.973,633.016,401.463,633.016Zm-10.2,13.76h20.459V634.8c-0.174.114-.3,0.2-0.424,0.279l-9.156,6.224a0.832,0.832,0,0,1-1.275.006L391.636,635c-0.107-.073-0.221-0.139-0.37-0.232v12.01Zm19.083-12.541H392.72c0.149,0.119.229,0.192,0.318,0.253q4.093,2.8,8.185,5.6a0.426,0.426,0,0,0,.575-0.01q4.11-2.809,8.231-5.6C410.112,634.419,410.189,634.355,410.349,634.235Z" transform="translate(-390 -633)"/>
</svg>
