<svg xmlns="http://www.w3.org/2000/svg" width="17.969" height="26" viewBox="0 0 17.969 26">
  <metadata><?xpacket begin="﻿" id="W5M0MpCehiHzreSzNTczkc9d"?>
<x:xmpmeta xmlns:x="adobe:ns:meta/" x:xmptk="Adobe XMP Core 5.6-c138 79.159824, 2016/09/14-01:09:01        ">
   <rdf:RDF xmlns:rdf="http://www.w3.org/1999/02/22-rdf-syntax-ns#">
      <rdf:Description rdf:about=""/>
   </rdf:RDF>
</x:xmpmeta>
                                                                                                    
                                                                                                    
                                                                                                    
                                                                                                    
                                                                                                    
                                                                                                    
                                                                                                    
                                                                                                    
                                                                                                    
                                                                                                    
                                                                                                    
                                                                                                    
                                                                                                    
                                                                                                    
                                                                                                    
                                                                                                    
                                                                                                    
                                                                                                    
                                                                                                    
                                                                                                    
                           
<?xpacket end="w"?></metadata>
<defs>
    <style>
      .cls-1 {
        fill: #2f9f13;
        fill-rule: evenodd;
      }
    </style>
  </defs>
  <path id="label" class="cls-1" d="M402,516a9.048,9.048,0,0,1,8.984,8.6,10.619,10.619,0,0,1-.795,4.374,40.814,40.814,0,0,1-4.608,8.548c-0.916,1.363-1.9,2.679-2.861,4.009a0.8,0.8,0,0,1-1.426.059,52.8,52.8,0,0,1-7.47-12.558,11,11,0,0,1-.812-3.461,8.829,8.829,0,0,1,4-8.036A8.445,8.445,0,0,1,402,516Zm-0.045,23.929c0.113-.143.168-0.2,0.213-0.269,1.148-1.688,2.337-3.35,3.432-5.072a31.14,31.14,0,0,0,3.333-6.7,8.02,8.02,0,0,0,.449-3.795,7.44,7.44,0,0,0-14.783,1.679,14.642,14.642,0,0,0,.712,2.8,38.723,38.723,0,0,0,4.208,7.823C400.289,537.577,401.116,538.716,401.955,539.928ZM398.027,525.1a3.972,3.972,0,1,1,7.943-.038,0.772,0.772,0,0,1-.693.83,0.741,0.741,0,0,1-.834-0.723,2.873,2.873,0,0,0-.619-1.681,2.391,2.391,0,0,0-3.454-.206,2.486,2.486,0,0,0-.116,3.535,2.415,2.415,0,0,0,3.5,0,1.4,1.4,0,0,1,.552-0.394,0.674,0.674,0,0,1,.827.378,0.8,0.8,0,0,1-.142.956,3.933,3.933,0,0,1-6.52-.823,11.68,11.68,0,0,1-.548-1.8Z" transform="translate(-393 -516)"/>
</svg>
