<svg xmlns="http://www.w3.org/2000/svg" width="13" height="14" viewBox="0 0 13 14">
  <metadata><?xpacket begin="﻿" id="W5M0MpCehiHzreSzNTczkc9d"?>
<x:xmpmeta xmlns:x="adobe:ns:meta/" x:xmptk="Adobe XMP Core 5.6-c138 79.159824, 2016/09/14-01:09:01        ">
   <rdf:RDF xmlns:rdf="http://www.w3.org/1999/02/22-rdf-syntax-ns#">
      <rdf:Description rdf:about=""/>
   </rdf:RDF>
</x:xmpmeta>
                                                                                                    
                                                                                                    
                                                                                                    
                                                                                                    
                                                                                                    
                                                                                                    
                                                                                                    
                                                                                                    
                                                                                                    
                                                                                                    
                                                                                                    
                                                                                                    
                                                                                                    
                                                                                                    
                                                                                                    
                                                                                                    
                                                                                                    
                                                                                                    
                                                                                                    
                                                                                                    
                           
<?xpacket end="w"?></metadata>
<defs>
    <style>
      .cls-1 {
        fill: #b9c2c9;
        fill-rule: evenodd;
      }
    </style>
  </defs>
  <path id="profile" class="cls-1" d="M1375.21,19.864a13.043,13.043,0,0,1,1.22.866,4.487,4.487,0,0,1,1.56,3.39c0.02,0.954,0,1.909,0,2.88h-12.96a0.391,0.391,0,0,1-.02-0.108c0-.962-0.04-1.926.02-2.885A4.529,4.529,0,0,1,1367.66,20c0.05-.027.1-0.053,0.17-0.087a4.461,4.461,0,0,1-.52-3.838,4.394,4.394,0,0,1,7.18-1.9A4.469,4.469,0,0,1,1375.21,19.864Zm0.93,5.278c0-.358.01-0.7,0-1.042a2.8,2.8,0,0,0-2.38-2.657,1.054,1.054,0,0,0-.5.072,4.449,4.449,0,0,1-3.53-.006,0.771,0.771,0,0,0-.45-0.065,4.014,4.014,0,0,0-1.03.358,3.047,3.047,0,0,0-1.36,3.34h9.25Zm-4.65-5.133a2.57,2.57,0,1,0-2.54-2.591A2.567,2.567,0,0,0,1371.49,20.009Z" transform="translate(-1365 -13)"/>
</svg>
