<svg xmlns="http://www.w3.org/2000/svg" width="30" height="27" viewBox="0 0 30 27">
  <metadata><?xpacket begin="﻿" id="W5M0MpCehiHzreSzNTczkc9d"?>
<x:xmpmeta xmlns:x="adobe:ns:meta/" x:xmptk="Adobe XMP Core 5.6-c138 79.159824, 2016/09/14-01:09:01        ">
   <rdf:RDF xmlns:rdf="http://www.w3.org/1999/02/22-rdf-syntax-ns#">
      <rdf:Description rdf:about=""/>
   </rdf:RDF>
</x:xmpmeta>
                                                                                                    
                                                                                                    
                                                                                                    
                                                                                                    
                                                                                                    
                                                                                                    
                                                                                                    
                                                                                                    
                                                                                                    
                                                                                                    
                                                                                                    
                                                                                                    
                                                                                                    
                                                                                                    
                                                                                                    
                                                                                                    
                                                                                                    
                                                                                                    
                                                                                                    
                                                                                                    
                           
<?xpacket end="w"?></metadata>
<defs>
    <style>
      .cls-1 {
        fill: #46515a;
        fill-rule: evenodd;
      }
    </style>
  </defs>
  <path id="Residential-building" class="cls-1" d="M1200.49,661.016c-0.65.567-1.19,1.1-1.79,1.552a1.721,1.721,0,0,1-.96.307,0.775,0.775,0,0,1-.7-0.64,0.977,0.977,0,0,1,.34-1.054c1.17-1.015,2.34-2.041,3.5-3.061q4.8-4.206,9.59-8.411a2.025,2.025,0,0,1,3.08,0q6.48,5.7,12.98,11.4a1,1,0,0,1,.26,1.441,0.952,0.952,0,0,1-1.45.067c-0.59-.5-1.16-1.018-1.83-1.6v12.465a2.274,2.274,0,0,1-2.5,2.517h-18.02a2.253,2.253,0,0,1-2.5-2.51V661.016Zm11.53-10.09a0.959,0.959,0,0,0-.11.06q-4.635,4.067-9.27,8.142a0.8,0.8,0,0,0-.22.538q-0.015,6.9-.01,13.8c0,0.535.04,0.58,0.57,0.58H1221c0.55,0,.59-0.04.59-0.57q0-6.9-.01-13.8a0.92,0.92,0,0,0-.28-0.6c-0.93-.844-1.88-1.662-2.82-2.489Q1215.255,653.764,1212.02,650.926Z" transform="translate(-1197 -649)"/>
</svg>
