<svg xmlns="http://www.w3.org/2000/svg" width="21" height="21" viewBox="0 0 21 21">
  <metadata><?xpacket begin="﻿" id="W5M0MpCehiHzreSzNTczkc9d"?>
<x:xmpmeta xmlns:x="adobe:ns:meta/" x:xmptk="Adobe XMP Core 5.6-c138 79.159824, 2016/09/14-01:09:01        ">
   <rdf:RDF xmlns:rdf="http://www.w3.org/1999/02/22-rdf-syntax-ns#">
      <rdf:Description rdf:about=""/>
   </rdf:RDF>
</x:xmpmeta>
                                                                                                    
                                                                                                    
                                                                                                    
                                                                                                    
                                                                                                    
                                                                                                    
                                                                                                    
                                                                                                    
                                                                                                    
                                                                                                    
                                                                                                    
                                                                                                    
                                                                                                    
                                                                                                    
                                                                                                    
                                                                                                    
                                                                                                    
                                                                                                    
                                                                                                    
                                                                                                    
                           
<?xpacket end="w"?></metadata>
<defs>
    <style>
      .cls-1 {
        fill: #2f9f13;
        fill-rule: evenodd;
      }
    </style>
  </defs>
  <path id="time" class="cls-1" d="M400.485,686A10.5,10.5,0,1,1,390,696.343,10.527,10.527,0,0,1,400.485,686ZM391.4,696.524a9.1,9.1,0,1,0,8.9-9.123A9.087,9.087,0,0,0,391.4,696.524Zm9.812-3.3c0,0.711.038,1.425-.013,2.132a1.008,1.008,0,0,0,.624,1.109c1.139,0.6,2.241,1.268,3.35,1.923a1,1,0,0,1,.494.466,0.88,0.88,0,0,1-.177.754,1.015,1.015,0,0,1-.869.04c-1.166-.62-2.3-1.3-3.441-1.968-1.616-.95-1.356-0.5-1.372-2.381-0.012-1.508,0-3.015,0-4.522a0.755,0.755,0,0,1,.7-0.924,0.766,0.766,0,0,1,.7.932C401.211,691.6,401.208,692.413,401.208,693.226Z" transform="translate(-390 -686)"/>
</svg>
